<svg width="250" height="250" viewBox="0 0 250 250" fill="none" xmlns="http://www.w3.org/2000/svg">
<g clip-path="url(#clip0_41_4)">
<path d="M208.333 136.948V41.6667C208.333 30.2083 198.958 20.8333 187.5 20.8333H62.5C51.0417 20.8333 41.6667 30.2083 41.6667 41.6667V126.792C38.75 127.823 35.9375 129.302 33.3281 131.25C19.5469 141.583 16.7396 161.214 27.0833 175C28.7448 177.214 68.3906 229.167 125 229.167H229.167V166.667C229.167 154.802 221.344 144.396 208.333 136.948ZM43.75 162.5C40.3021 157.906 41.2396 151.359 45.8177 147.917C47.6927 146.51 49.8959 145.839 52.0729 145.839C55.2396 145.839 58.3594 147.266 60.3854 149.958C60.6615 150.333 88.6771 187.5 125 187.5H166.667V177.083V166.667H125C118.599 166.667 112.188 164.661 106.198 161.656C112.073 154.026 130.339 145.833 156.25 145.833C188.042 145.833 208.333 158.172 208.333 166.667V208.333H197.917H125C78.6823 208.333 45.1511 164.37 43.75 162.5ZM135.417 41.6667V62.5H114.583V41.6667H135.417ZM93.75 41.6667V83.3333H156.25V41.6667H187.5V128.792C178.115 126.37 167.583 125 156.25 125C125.25 125 99.9323 134.964 89.0625 149.88C83.5938 145.12 79.3646 140.438 77.0834 137.49C73.2448 132.38 68.125 128.792 62.5 126.812V41.6667H93.75Z" fill="#A41D21"/>
</g>
<defs>
<clipPath id="clip0_41_4">
<rect width="250" height="250" fill="white"/>
</clipPath>
</defs>
</svg>
