<svg width="250" height="250" viewBox="0 0 250 250" fill="none" xmlns="http://www.w3.org/2000/svg">
<g clip-path="url(#clip0_41_13)">
<path d="M145.833 83.3334H48.6111C46.7693 83.3334 45.0029 82.6017 43.7006 81.2994C42.3983 79.997 41.6666 78.2307 41.6666 76.3889V48.6111C41.6666 46.7694 42.3983 45.003 43.7006 43.7007C45.0029 42.3983 46.7693 41.6667 48.6111 41.6667H145.833C147.675 41.6667 149.441 42.3983 150.744 43.7007C152.046 45.003 152.778 46.7694 152.778 48.6111V76.3889C152.778 78.2307 152.046 79.997 150.744 81.2994C149.441 82.6017 147.675 83.3334 145.833 83.3334ZM55.5555 69.4445H138.889V55.1389H55.5555V69.4445Z" fill="#A41D21"/>
<path d="M145.833 97.7778H48.6111C46.7693 97.7778 45.0029 98.5094 43.7006 99.8118C42.3983 101.114 41.6666 102.88 41.6666 104.722V131.944C41.6666 133.786 42.3983 135.553 43.7006 136.855C45.0029 138.157 46.7693 138.889 48.6111 138.889H127.5L152.778 113.194V104.722C152.778 102.88 152.046 101.114 150.744 99.8118C149.441 98.5094 147.675 97.7778 145.833 97.7778ZM138.889 125H55.5555V111.111H138.889V125Z" fill="#A41D21"/>
<path d="M76.8056 218.819V218.403L79.0278 208.75H27.7778V27.7778H166.667V98.9583L180.556 85.8333V20.8333C180.556 18.9915 179.824 17.2252 178.522 15.9229C177.219 14.6205 175.453 13.8889 173.611 13.8889H20.8334C18.9916 13.8889 17.2252 14.6205 15.9229 15.9229C14.6206 17.2252 13.8889 18.9915 13.8889 20.8333V215.278C13.8889 217.12 14.6206 218.886 15.9229 220.188C17.2252 221.491 18.9916 222.222 20.8334 222.222H76.3889C76.4461 221.079 76.5854 219.942 76.8056 218.819Z" fill="#A41D21"/>
<path d="M152.778 133.125L147.361 138.611C148.705 138.334 149.937 137.665 150.901 136.689C151.865 135.712 152.518 134.472 152.778 133.125Z" fill="#A41D21"/>
<path d="M41.6666 187.083C41.6666 188.925 42.3983 190.691 43.7006 191.994C45.0029 193.296 46.7693 194.028 48.6111 194.028H82.2222L84.3055 185L85.2083 181.181V180.833H55.5555V166.667H99.5833L113.472 152.778H48.6111C46.7693 152.778 45.0029 153.509 43.7006 154.812C42.3983 156.114 41.6666 157.88 41.6666 159.722V187.083Z" fill="#A41D21"/>
<path d="M232.569 115.764L209.167 92.3611C208.128 91.3197 206.894 90.4934 205.536 89.9296C204.177 89.3658 202.721 89.0756 201.25 89.0756C199.779 89.0756 198.323 89.3658 196.964 89.9296C195.606 90.4934 194.372 91.3197 193.333 92.3611L98.125 188.125L90.2777 221.528C89.9839 222.969 89.9773 224.454 90.2583 225.897C90.5393 227.341 91.1023 228.715 91.9151 229.94C92.7279 231.166 93.7745 232.219 94.995 233.04C96.2155 233.86 97.5859 234.432 99.0277 234.722C99.7435 234.794 100.465 234.794 101.181 234.722C102.031 234.861 102.899 234.861 103.75 234.722L137.431 227.292L232.569 131.944C233.609 130.912 234.434 129.684 234.996 128.331C235.559 126.978 235.849 125.528 235.849 124.062C235.849 122.597 235.559 121.147 234.996 119.794C234.434 118.441 233.609 117.213 232.569 116.181V115.764ZM130.347 214.653L104.931 220.278L111.111 195.069L182.5 122.917L202.083 142.5L130.347 214.653ZM209.93 134.653L190.347 115.069L201.389 104.167L221.111 123.889L209.93 134.653Z" fill="#A41D21"/>
</g>
<defs>
<clipPath id="clip0_41_13">
<rect width="250" height="250" fill="white"/>
</clipPath>
</defs>
</svg>
