<svg width="250" height="250" viewBox="0 0 250 250" fill="none" xmlns="http://www.w3.org/2000/svg">
<path d="M236.521 163.625L184.437 215.708C182.473 217.606 179.842 218.656 177.11 218.632C174.379 218.608 171.767 217.513 169.835 215.581C167.904 213.65 166.808 211.037 166.785 208.306C166.761 205.575 167.811 202.944 169.708 200.979L204.021 166.667H20.8333C18.0707 166.667 15.4211 165.569 13.4676 163.616C11.5141 161.662 10.4167 159.013 10.4167 156.25V41.6667C10.4167 38.904 11.5141 36.2545 13.4676 34.301C15.4211 32.3475 18.0707 31.25 20.8333 31.25H125C127.763 31.25 130.412 32.3475 132.366 34.301C134.319 36.2545 135.417 38.904 135.417 41.6667C135.417 44.4293 134.319 47.0789 132.366 49.0324C130.412 50.9859 127.763 52.0833 125 52.0833H31.25V145.833H204.021L169.719 111.531C167.821 109.567 166.771 106.935 166.795 104.204C166.819 101.473 167.914 98.8603 169.846 96.929C171.777 94.9976 174.39 93.9021 177.121 93.8784C179.852 93.8547 182.483 94.9046 184.448 96.8021L236.531 148.885C237.499 149.854 238.267 151.003 238.79 152.268C239.313 153.533 239.582 154.888 239.581 156.257C239.58 157.626 239.309 158.982 238.784 160.246C238.259 161.51 237.49 162.658 236.521 163.625Z" fill="#A41D21"/>
</svg>
